#!OML:ASF F:\VICON\USERDATA\INSTALL\rory3\rory3.ASF
:FULLY-SPECIFIED
:DEGREES
639
root -0.181774 18.0077 -2.96794 -183.141 50.4444 178.795
lowerback 10.2016 -0.293888 -2.09249
upperback 0.700065 -0.503065 1.41442
thorax -4.96204 -0.165127 2.72751
lowerneck -17.3852 -6.75848 -10.4914
upperneck 30.8626 -8.06041 7.73851
head 14.2803 -3.31825 3.60863
rclavicle -3.04141e-014 -5.1684e-015
rhumerus -35.9187 -10.9194 -80.9926
rradius 27.5137
rwrist 5.94929
rhand -17.5257 7.50791
rfingers 7.12502
rthumb 8.7281 -22.2916
lclavicle -3.04141e-014 -5.1684e-015
lhumerus -33.9322 -1.67965 87.6466
lradius 33.5006
lwrist -6.35405
lhand -16.7424 24.4
lfingers 7.12502
lthumb 9.48392 54.1666
rfemur -14.9511 -6.9034 24.9799
rtibia 22.7262
rfoot -4.47445 1.03273
rtoes 13.4268
lfemur 3.61662 -1.33408 -22.4382
ltibia 39.6507
lfoot 20.3107 -22.9188
ltoes 9.66684
640
root -0.0698444 18.015 -3.04229 -182.791 50.6853 179.409
lowerback 10.2939 -0.175502 -1.79558
upperback 0.693636 -0.303214 1.54585
thorax -5.03374 -0.0694089 2.66986
lowerneck -17.3041 -6.81948 -10.5096
upperneck 30.8998 -8.16021 7.77999
head 14.2947 -3.35583 3.61371
rclavicle 8.05823e-014 -1.07344e-014
rhumerus -35.703 -9.98032 -81.3807
rradius 27.7577
rwrist 5.54526
rhand -17.6388 7.06658
rfingers 7.12502
rthumb 8.61893 -22.7375
lclavicle 8.05823e-014 -1.07344e-014
lhumerus -34.358 -2.49586 88.0268
lradius 33.4637
lwrist -6.14664
lhand -16.5556 24.194
lfingers 7.12502
lthumb 9.66415 53.9523
rfemur -14.154 -7.20398 25.4754
rtibia 22.3387
rfoot -4.74677 1.28904
rtoes 12.7931
lfemur 2.48929 -1.43991 -21.8628
ltibia 41.6238
lfoot 19.7398 -22.9497
ltoes 9.79408
641
root 0.0386842 18.0178 -3.12196 -182.555 51.0518 179.923
lowerback 10.3856 0.00493239 -1.53425
upperback 0.719107 -0.023708 1.66911
thorax -5.07507 0.0658868 2.61127
lowerneck -17.2196 -6.87679 -10.5222
upperneck 30.9123 -8.2571 7.82351
head 14.2969 -3.39175 3.61841
rclavicle 8.65707e-014 9.14409e-015
rhumerus -35.4151 -9.06822 -81.6915
rradius 28.0024
rwrist 5.14772
rhand -17.7179 6.63876
rfingers 7.12502
rthumb 8.54255 -23.1684
lclavicle 8.65707e-014 9.14409e-015
lhumerus -34.7328 -3.23813 88.4302
lradius 33.4211
lwrist -6.11423
lhand -16.5159 23.9111
lfingers 7.12502
lthumb 9.70244 53.6676
rfemur -13.375 -7.41 25.8707
rtibia 22.0827
rfoot -5.09201 1.55771
rtoes 11.7617
lfemur 1.47479 -1.4024 -21.4128
ltibia 43.4699
lfoot 17.5042 -22.9122
ltoes 4.72933
642
root 0.144984 18.0209 -3.19579 -182.36 51.2582 180.34
lowerback 10.5035 0.163236 -1.30737
upperback 0.727108 0.219144 1.74056
thorax -5.14595 0.183287 2.52271
lowerneck -17.1412 -6.9665 -10.4923
upperneck 30.8921 -8.40633 7.83587
head 14.288 -3.45038 3.59149
rclavicle 2.79292e-014 -7.15625e-015
rhumerus -35.1452 -8.55945 -81.8596
rradius 28.2391
rwrist 5.32956
rhand -17.344 7.04764
rfingers 7.12502
rthumb 8.90343 -22.7445
lclavicle 2.79292e-014 -7.15625e-015
lhumerus -35.0588 -3.88748 88.7483
lradius 33.374
lwrist -6.37294
lhand -16.5229 23.9546
lfingers 7.12502
lthumb 9.69571 53.7115
rfemur -12.6357 -7.35569 26.1722
rtibia 21.8397
rfoot -5.34339 1.41748
rtoes 11.0883
lfemur 0.401304 -1.31341 -20.932
ltibia 45.1826
lfoot 14.7573 -22.6476
ltoes -1.9318
643
root 0.247811 18.0248 -3.2655 -182.258 51.3389 180.579
lowerback 10.6231 0.278876 -1.16196
upperback 0.690487 0.389916 1.74006
thorax -5.2596 0.265624 2.41498
lowerneck -16.9258 -7.07668 -10.4983
upperneck 30.8463 -8.62303 7.97373
head 14.2553 -3.5266 3.61257
rclavicle -4.12727e-014 -1.51076e-014
rhumerus -34.9419 -7.94298 -82.1857
rradius 28.5619
rwrist 5.51221
rhand -16.7138 7.94769
rfingers 7.12502
rthumb 9.51152 -21.8176
lclavicle -4.12727e-014 -1.51076e-014
lhumerus -35.3539 -4.55193 88.9867
lradius 33.3081
lwrist -6.60937
lhand -15.7511 24.0748
lfingers 7.12502
lthumb 10.4403 53.7956
rfemur -11.9291 -7.17157 26.3271
rtibia 21.5336
rfoot -5.51819 1.14209
rtoes 11.3996
lfemur -0.729965 -1.30499 -20.5641
ltibia 46.7651
lfoot 12.1412 -22.0093
ltoes -7.21241
644
root 0.349876 18.0357 -3.33368 -182.139 51.5261 180.826
lowerback 10.7869 0.394316 -1.07584
upperback 0.629559 0.555463 1.77229
thorax -5.4234 0.347481 2.37531
lowerneck -16.7148 -7.15165 -10.6102
upperneck 30.845 -8.78621 8.21531
head 14.2501 -3.57706 3.70697
rclavicle 1.68967e-014 -1.90833e-014
rhumerus -34.6642 -7.20985 -82.5189
rradius 28.7971
rwrist 5.44434
rhand -16.6136 8.28919
rfingers 7.12502
rthumb 9.60818 -21.4717
lclavicle 1.68967e-014 -1.90833e-014
lhumerus -35.7212 -5.20852 89.2243
lradius 33.3138
lwrist -6.65185
lhand -15.6288 24.2069
lfingers 7.12502
lthumb 10.5582 53.9217
rfemur -11.2188 -6.63439 26.4988
rtibia 21.2371
rfoot -5.69266 0.736876
rtoes 11.2645
lfemur -1.8392 -1.42078 -20.2741
ltibia 48.2178
lfoot 9.84975 -20.935
ltoes -10.451
645
root 0.454122 18.0471 -3.39913 -181.889 51.9055 181.243
lowerback 10.9497 0.565287 -0.952153
upperback 0.579209 0.801558 1.82204
thorax -5.57903 0.468107 2.31917
lowerneck -16.536 -7.17284 -10.5928
upperneck 30.8034 -8.88029 8.36663
head 14.2119 -3.596 3.75234
rclavicle 2.43014e-014 -5.56597e-015
rhumerus -34.2733 -6.79847 -82.7657
rradius 28.818
rwrist 5.64306
rhand -16.7823 8.23828
rfingers 7.12502
rthumb 9.44538 -21.5301
lclavicle 2.43014e-014 -5.56597e-015
lhumerus -36.1156 -5.76457 89.3587
lradius 33.334
lwrist -6.77941
lhand -16.3986 24.129
lfingers 7.12502
lthumb 9.81558 53.8803
rfemur -10.5414 -6.04992 26.8234
rtibia 21.0168
rfoot -5.89479 0.449144
rtoes 10.625
lfemur -2.90764 -1.34911 -19.8124
ltibia 49.5268
lfoot 8.44266 -19.2012
ltoes -9.20617
646
root 0.555963 18.0501 -3.46638 -181.636 52.3677 181.651
lowerback 11.0251 0.771557 -0.753089
upperback 0.582494 1.10075 1.81251
thorax -5.62837 0.610748 2.14893
lowerneck -16.3882 -7.21805 -10.5413
upperneck 30.76 -9.02158 8.52783
head 14.1846 -3.62966 3.78643
rclavicle -7.20594e-014 9.54166e-015
rhumerus -33.887 -6.40341 -83.0885
rradius 28.9978
rwrist 5.75016
rhand -16.786 8.24618
rfingers 7.12502
rthumb 9.4418 -21.5223
lclavicle -7.20594e-014 9.54166e-015
lhumerus -36.3644 -6.12851 89.3509
lradius 33.3076
lwrist -7.18187
lhand -16.4561 23.8898
lfingers 7.12502
lthumb 9.7601 53.6437
rfemur -9.9208 -5.7161 27.1324
rtibia 20.8494
rfoot -6.14476 0.454112
rtoes 10.4707
lfemur -3.95604 -0.891875 -19.2732
ltibia 50.6793
lfoot 7.24123 -17.4245
ltoes -5.87939
647
root 0.650998 18.0492 -3.54012 -181.638 52.741 181.752
lowerback 11.0699 0.947369 -0.631828
upperback 0.620686 1.34577 1.74604
thorax -5.6196 0.72716 1.97136
lowerneck -16.3149 -7.26745 -10.5385
upperneck 30.756 -9.15127 8.69583
head 14.1937 -3.66142 3.83382
rclavicle -1.7344e-014 -1.35174e-014
rhumerus -33.435 -5.99858 -83.3501
rradius 29.2213
rwrist 5.83119
rhand -16.6386 8.17188
rfingers 7.12502
rthumb 9.58402 -21.5901
lclavicle -1.7344e-014 -1.35174e-014
lhumerus -36.5488 -6.28487 89.3102
lradius 33.2612
lwrist -7.71398
lhand -15.7995 23.6603
lfingers 7.12502
lthumb 10.3936 53.3834
rfemur -9.34698 -5.52934 27.1758
rtibia 20.7963
rfoot -6.45691 0.57057
rtoes 11.2553
lfemur -4.95523 -0.461111 -19.0186
ltibia 51.6677
lfoot 5.58235 -16.0705
ltoes -5.62834
648
root 0.745241 18.0514 -3.61497 -181.775 53.0693 181.654
lowerback 11.0691 1.11006 -0.634509
upperback 0.660374 1.55825 1.69496
thorax -5.58453 0.8307 1.88575
lowerneck -16.2636 -7.30604 -10.6067
upperneck 30.7425 -9.21658 8.78305
head 14.195 -3.68614 3.87044
rclavicle -5.45912e-014 -5.56597e-015
rhumerus -32.8229 -6.0153 -83.346
rradius 29.159
rwrist 6.42292
rhand -16.3736 8.25972
rfingers 7.12502
rthumb 9.83976 -21.4904
lclavicle -5.45912e-014 -5.56597e-015
lhumerus -36.765 -6.21869 89.2534
lradius 33.3269
lwrist -8.12042
lhand -15.2391 23.7119
lfingers 7.12502
lthumb 10.9342 53.4072
rfemur -8.88027 -5.40376 27.0901
rtibia 20.891
rfoot -6.88837 0.719488
rtoes 11.1085
lfemur -5.94933 -0.296638 -18.9783
ltibia 52.4857
lfoot 4.04096 -14.5464
ltoes -6.64796
649
root 0.836708 18.0512 -3.68431 -181.731 53.3433 181.779
lowerback 11.1534 1.21524 -0.615157
upperback 0.65412 1.70554 1.75573
thorax -5.64558 0.904243 1.91367
lowerneck -16.1871 -7.29807 -10.7141
upperneck 30.7705 -9.17049 8.77355
head 14.1911 -3.68029 3.89639
rclavicle 5.35228e-014 -7.15625e-015
rhumerus -32.3135 -5.90294 -83.3206
rradius 29.1964
rwrist 6.68492
rhand -16.3452 8.42497
rfingers 7.12502
rthumb 9.86709 -21.3238
lclavicle 5.35228e-014 -7.15625e-015
lhumerus -36.9832 -5.61543 89.0701
lradius 33.3084
lwrist -8.66891
lhand -15.2772 23.7575
lfingers 7.12502
lthumb 10.8974 53.4547
rfemur -8.46001 -5.25899 27.18
rtibia 21.039
rfoot -7.35868 0.728708
rtoes 10.3392
lfemur -6.96122 -0.257795 -18.7602
ltibia 53.1667
lfoot 2.9701 -12.888
ltoes -6.14895
650
root 0.928972 18.0521 -3.75343 -181.54 53.554 182.08
lowerback 11.1938 1.26709 -0.484774
upperback 0.664597 1.79616 1.81219
thorax -5.65873 0.947006 1.88408
lowerneck -16.132 -7.24084 -10.6538
upperneck 30.8344 -9.07556 8.68608
head 14.1854 -3.64189 3.87145
rclavicle -3.51849e-014 4.77083e-015
rhumerus -31.7774 -5.64172 -83.4559
rradius 29.252
rwrist 6.66848
rhand -16.6279 8.31465
rfingers 7.12502
rthumb 9.59437 -21.4469
lclavicle -3.51849e-014 4.77083e-015
lhumerus -37.217 -5.03476 88.8086
lradius 33.2404
lwrist -9.08199
lhand -15.8407 23.5323
lfingers 7.12502
lthumb 10.3539 53.2574
rfemur -8.04377 -5.10192 27.3752
rtibia 21.1959
rfoot -7.80085 0.666009
rtoes 10.018
lfemur -7.94877 -0.273587 -18.422
ltibia 53.7032
lfoot 1.87287 -11.3964
ltoes -6.50161
